<svg xmlns="http://www.w3.org/2000/svg" width="19.084" height="16" viewBox="0 0 19.084 16">
  <g id="Group_7" data-name="Group 7" transform="translate(-0.458 -2)">
    <path id="Path_13" data-name="Path 13" d="M3.707,2.293A1,1,0,1,0,2.293,3.707l14,14a1,1,0,1,0,1.414-1.414L16.234,14.82A10.014,10.014,0,0,0,19.542,10,10.006,10.006,0,0,0,5.488,4.074L3.708,2.293Zm4.261,4.26L9.482,8.068a2,2,0,0,1,2.45,2.45l1.514,1.514A4,4,0,0,0,7.968,6.554Z" fill="#4b4b4b" fill-rule="evenodd"/>
    <path id="Path_14" data-name="Path 14" d="M12.454,16.7l-2.7-2.705a4,4,0,0,1-3.742-3.741L2.335,6.578A9.98,9.98,0,0,0,.458,10a10.016,10.016,0,0,0,12,6.7Z" fill="#4b4b4b"/>
  </g>
</svg>